HIERARCHY
ROOT Hips
{
	OFFSET 62.890800 8.863803 43.568401
	CHANNELS 6 Xposition Yposition Zposition Zrotation Xrotation Yrotation
	JOINT Chest
	{
		OFFSET -0.160400 1.630001 7.806301
		CHANNELS 6 Xposition Yposition Zposition Zrotation Xrotation Yrotation
		JOINT Chest2
		{
			OFFSET 0.000000 0.000000 3.197998
			CHANNELS 6 Xposition Yposition Zposition Zrotation Xrotation Yrotation
			JOINT Neck
			{
				OFFSET 0.000000 0.000001 7.440701
				CHANNELS 6 Xposition Yposition Zposition Zrotation Xrotation Yrotation
				JOINT Head
				{
					OFFSET 0.000000 0.000000 2.173901
					CHANNELS 6 Xposition Yposition Zposition Zrotation Xrotation Yrotation
					End Site
					{
						OFFSET 0.000000 0.000001 10.420303
					}
				}
			}
			JOINT LeftCollar
			{
				OFFSET 2.426399 -1.880099 4.759399
				CHANNELS 6 Xposition Yposition Zposition Zrotation Xrotation Yrotation
				JOINT LeftShoulder
				{
					OFFSET 4.420197 0.000000 0.000000
					CHANNELS 6 Xposition Yposition Zposition Zrotation Xrotation Yrotation
					JOINT LeftElbow
					{
						OFFSET 0.000000 -0.000001 -10.347099
						CHANNELS 6 Xposition Yposition Zposition Zrotation Xrotation Yrotation
						JOINT LeftWrist
						{
							OFFSET 0.000000 -0.000001 -12.496300
							CHANNELS 6 Xposition Yposition Zposition Zrotation Xrotation Yrotation
							End Site
							{
								OFFSET 0.000000 0.000000 -2.173901
							}
						}
					}
				}
			}
			JOINT RightCollar
			{
				OFFSET -2.781502 -1.903799 5.072601
				CHANNELS 6 Xposition Yposition Zposition Zrotation Xrotation Yrotation
				JOINT RightShoulder
				{
					OFFSET -4.012100 0.000000 0.000000
					CHANNELS 6 Xposition Yposition Zposition Zrotation Xrotation Yrotation
					JOINT RightElbow
					{
						OFFSET 0.000000 -0.000001 -10.346600
						CHANNELS 6 Xposition Yposition Zposition Zrotation Xrotation Yrotation
						JOINT RightWrist
						{
							OFFSET 0.000000 -0.000001 -12.562599
							CHANNELS 6 Xposition Yposition Zposition Zrotation Xrotation Yrotation
							End Site
							{
								OFFSET 0.000000 0.000000 -2.173901
							}
						}
					}
				}
			}
		}
	}
	JOINT LeftHip
	{
		OFFSET 2.047997 -0.047200 -2.693199
		CHANNELS 6 Xposition Yposition Zposition Zrotation Xrotation Yrotation
		JOINT LeftKnee
		{
			OFFSET 0.000000 -0.000001 -18.824400
			CHANNELS 6 Xposition Yposition Zposition Zrotation Xrotation Yrotation
			JOINT LeftAnkle
			{
				OFFSET 0.000000 -0.000002 -19.078199
				CHANNELS 6 Xposition Yposition Zposition Zrotation Xrotation Yrotation
				End Site
				{
					OFFSET 0.000000 -9.342100 0.000001
				}
			}
		}
	}
	JOINT RightHip
	{
		OFFSET -2.129898 -0.022300 -2.538300
		CHANNELS 6 Xposition Yposition Zposition Zrotation Xrotation Yrotation
		JOINT RightKnee
		{
			OFFSET 0.000000 -0.000001 -18.644600
			CHANNELS 6 Xposition Yposition Zposition Zrotation Xrotation Yrotation
			JOINT RightAnkle
			{
				OFFSET 0.000000 -0.000002 -18.801399
				CHANNELS 6 Xposition Yposition Zposition Zrotation Xrotation Yrotation
				End Site
				{
					OFFSET 0.000000 -8.914600 0.000001
				}
			}
		}
	}
}
MOTION
Frames: 5
Frame Time: 0.041667
47.387497 26.315598 24.794580 -76.827901 35.737882 -1.653136 -0.160397 1.630006 7.806300 -5.352046 25.534360 -0.835926 0.000008 -0.000004 3.198001 0.203957 -11.030894 0.278518 -0.000006 -0.000002 7.440706 -1.707850 -0.309507 -1.336094 -0.000007 0.000000 2.173901 1.069227 -7.914611 -1.782205 2.426403 -1.880102 4.759402 -181.812669 169.574869 -181.683537 4.420194 -0.000001 0.000003 -40.878443 11.225085 -76.250319 0.000007 -0.000001 -10.347093 562.054846 -181.138065 -178.788220 -0.000002 0.000002 -12.496295 143.325974 19.529106 358.258503 -2.781500 -1.903804 5.072604 -172.047138 -193.511007 177.451702 -4.012097 0.000006 0.000007 33.426816 12.095818 439.862844 -0.000002 -0.000002 -10.346589 -386.978438 -2.633911 -8.497165 -0.000003 -0.000003 -12.562595 1459.670111 -190.710288 140.242498 2.047996 -0.047193 -2.693210 485.808898 -24.942406 124.539484 -0.000002 -0.000000 -18.824398 22.501645 163.313184 -64.547747 0.000003 -0.000006 -19.078199 -320.883435 -10.939118 37.322220 -2.129890 -0.022292 -2.538301 -492.097972 -21.324081 -93.128994 -0.000003 0.000005 -18.644594 373.175718 166.254331 48.075704 -0.000001 0.000000 -18.801403 -25.926903 -9.308420 -40.178028
47.394901 26.273083 25.217680 -77.110978 35.459538 -1.462756 -0.160404 1.629996 7.806295 -5.368849 25.358810 -0.746016 0.000004 -0.000001 3.198001 0.306225 -11.159683 0.276387 -0.000005 -0.000001 7.440706 -1.621054 0.285429 -1.270623 0.000000 0.000002 2.173908 1.187136 -7.769176 -1.820267 2.426402 -1.880102 4.759400 -181.630467 169.552780 -181.587122 4.420193 0.000001 -0.000004 -40.073785 11.223871 -78.371319 0.000007 -0.000000 -10.347090 562.807915 -180.583945 -178.533577 0.000000 -0.000001 -12.496301 142.389992 19.269097 358.832157 -2.781503 -1.903801 5.072603 -171.947704 -193.996552 177.645325 -4.012097 0.000002 -0.000000 32.403203 11.699515 442.354087 0.000000 0.000003 -10.346602 -387.143236 -2.648254 -8.736749 -0.000000 -0.000002 -12.562605 1459.824855 -190.727254 140.405562 2.047995 -0.047200 -2.693205 485.081237 -25.665623 123.126727 -0.000002 0.000003 -18.824398 22.889852 162.632200 -65.636486 -0.000003 -0.000005 -19.078201 -320.946054 -10.813254 36.915229 -2.129899 -0.022299 -2.538301 -491.353809 -22.310915 -92.057378 -0.000004 0.000001 -18.644592 372.164550 164.970584 48.982678 -0.000000 -0.000003 -18.801399 -25.434684 -9.410251 -39.559049
47.399498 26.236496 25.617281 -77.365478 35.202679 -1.283410 -0.160401 1.629994 7.806307 -5.385217 25.197922 -0.675915 0.000009 -0.000002 3.198002 0.404774 -11.288250 0.272819 -0.000001 0.000011 7.440700 -1.537472 0.842610 -1.204505 -0.000010 0.000002 2.173903 1.357838 -7.607881 -2.019950 2.426403 -1.880092 4.759394 -181.460245 169.514271 -181.474055 4.420206 0.000003 -0.000001 -39.307428 11.286784 -80.322601 0.000007 -0.000001 -10.347093 563.366352 -180.053868 -178.300108 0.000001 -0.000006 -12.496303 141.791353 18.977554 359.333056 -2.781500 -1.903790 5.072598 -171.816332 -194.240253 177.994989 -4.012087 0.000007 -0.000001 31.459964 11.419848 444.355879 0.000000 0.000004 -10.346603 -387.260579 -2.630865 -8.866269 -0.000001 0.000005 -12.562597 1459.890972 -190.805146 140.662965 2.047994 -0.047207 -2.693195 484.387782 -26.330577 121.783858 0.000000 0.000004 -18.824398 23.279108 162.001541 -66.669224 -0.000004 0.000000 -19.078201 -321.010667 -10.701960 36.515824 -2.129898 -0.022301 -2.538300 -490.637896 -23.251195 -91.070730 -0.000001 -0.000002 -18.644600 371.199580 163.736068 49.790081 0.000002 0.000000 -18.801405 -24.921439 -9.470886 -38.966393
47.402302 26.205299 25.980978 -77.588504 34.975749 -1.122638 -0.160401 1.629994 7.806299 -5.400231 25.055917 -0.620898 0.000008 -0.000004 3.198005 0.494679 -11.409299 0.268328 -0.000004 0.000001 7.440696 -1.460398 1.344812 -1.141991 -0.000008 -0.000001 2.173906 1.466334 -7.481785 -2.040586 2.426401 -1.880100 4.759395 -181.311565 169.458619 -181.350429 4.420190 0.000001 0.000001 -38.574890 11.377689 -82.076327 0.000003 -0.000004 -10.347093 563.861404 -179.534391 -178.073291 -0.000008 0.000003 -12.496295 141.232193 18.719221 359.787810 -2.781499 -1.903804 5.072593 -171.718196 -194.667044 178.067649 -4.012100 0.000003 0.000001 30.576834 11.152774 446.438048 0.000000 0.000002 -10.346601 -387.340875 -2.651289 -9.087549 0.000004 -0.000003 -12.562597 1459.884524 -190.796813 140.828010 2.047995 -0.047204 -2.693204 483.754159 -26.929074 120.556582 -0.000002 0.000002 -18.824396 23.661915 161.419992 -67.618641 -0.000001 0.000002 -19.078201 -321.089133 -10.593032 36.134194 -2.129896 -0.022304 -2.538300 -489.942856 -24.086425 -90.111738 0.000003 -0.000002 -18.644602 370.301001 162.585181 50.563689 -0.000002 -0.000002 -18.801403 -24.446564 -9.525979 -38.455789
47.401001 26.167786 26.517778 -77.871547 34.700137 -0.891320 -0.160402 1.630009 7.806308 -5.457642 24.845307 -0.574802 0.000007 0.000008 3.198000 0.640241 -11.586415 0.257325 -0.000004 0.000003 7.440691 -1.368530 2.036783 -1.044790 -0.000006 0.000003 2.173901 1.599259 -7.318230 -2.126043 2.426404 -1.880095 4.759392 -181.122109 169.310472 -181.063725 4.420200 0.000006 0.000005 -37.605382 11.521485 -84.525319 -0.000001 -0.000005 -10.347098 563.963911 -179.190081 -177.993009 -0.000000 0.000001 -12.496301 141.081246 18.503317 360.366682 -2.781500 -1.903800 5.072595 -171.589501 -195.309765 178.095338 -4.012103 0.000001 -0.000011 29.309144 11.027451 449.246731 0.000001 0.000001 -10.346602 -387.528022 -2.695384 -9.352362 -0.000002 -0.000002 -12.562600 1459.682241 -190.798534 141.013695 2.047996 -0.047189 -2.693204 482.842137 -27.841581 118.784926 -0.000008 0.000005 -18.824402 24.343870 160.507478 -69.098196 0.000000 -0.000000 -19.078199 -321.281990 -10.402398 35.626075 -2.129897 -0.022292 -2.538298 -488.926251 -25.076174 -88.709493 -0.000006 -0.000003 -18.644596 369.166588 160.799387 51.681231 0.000002 -0.000005 -18.801405 -23.658095 -9.579711 -37.674354
